<mxfile host="app.diagrams.net" modified="2022-02-11T08:35:54.401Z" agent="5.0 (Windows NT 10.0; Win64; x64) AppleWebKit/537.36 (KHTML, like Gecko) Chrome/98.0.4758.80 Safari/537.36 Edg/98.0.1108.43" etag="seDlhYZeGUaxMaCx9brQ" version="16.5.3" type="github">
  <diagram name="Page-1" id="c4acf3e9-155e-7222-9cf6-157b1a14988f">
    <mxGraphModel dx="2188" dy="2272" grid="1" gridSize="10" guides="1" tooltips="1" connect="1" arrows="1" fold="1" page="1" pageScale="1" pageWidth="850" pageHeight="1100" background="none" math="0" shadow="0">
      <root>
        <mxCell id="0" />
        <mxCell id="1" parent="0" />
        <mxCell id="evBoG5ZWrJdA5R31Dtoz-10" style="edgeStyle=orthogonalEdgeStyle;rounded=0;orthogonalLoop=1;jettySize=auto;html=1;entryX=0.5;entryY=1;entryDx=0;entryDy=0;" edge="1" parent="1" source="evBoG5ZWrJdA5R31Dtoz-2" target="evBoG5ZWrJdA5R31Dtoz-3">
          <mxGeometry relative="1" as="geometry">
            <mxPoint x="371.03999999999996" y="340" as="targetPoint" />
          </mxGeometry>
        </mxCell>
        <mxCell id="evBoG5ZWrJdA5R31Dtoz-12" value="register" style="edgeLabel;html=1;align=center;verticalAlign=middle;resizable=0;points=[];" vertex="1" connectable="0" parent="evBoG5ZWrJdA5R31Dtoz-10">
          <mxGeometry x="0.2" y="2" relative="1" as="geometry">
            <mxPoint as="offset" />
          </mxGeometry>
        </mxCell>
        <mxCell id="evBoG5ZWrJdA5R31Dtoz-2" value="&lt;p style=&quot;margin: 0px ; margin-top: 4px ; text-align: center&quot;&gt;&lt;i&gt;&amp;lt;&amp;lt;试用期考试处理接口&amp;gt;&amp;gt;&lt;/i&gt;&lt;br&gt;&lt;b&gt;ProbationProccessor&lt;/b&gt;&lt;br&gt;&lt;/p&gt;&lt;hr size=&quot;1&quot;&gt;&lt;p style=&quot;margin: 0px ; margin-left: 4px&quot;&gt;&lt;br&gt;&lt;/p&gt;&lt;hr size=&quot;1&quot;&gt;&lt;p style=&quot;margin: 0px ; margin-left: 4px&quot;&gt;+ process(Type): Type&lt;br&gt;&lt;/p&gt;&lt;p style=&quot;margin: 0px ; margin-left: 4px&quot;&gt;+ getProbationStageProcessor()&lt;br&gt;&lt;/p&gt;&lt;p style=&quot;margin: 0px ; margin-left: 4px&quot;&gt;+ supportType()&lt;/p&gt;" style="verticalAlign=top;align=left;overflow=fill;fontSize=12;fontFamily=Helvetica;html=1;" vertex="1" parent="1">
          <mxGeometry x="250" y="530" width="230" height="130" as="geometry" />
        </mxCell>
        <mxCell id="evBoG5ZWrJdA5R31Dtoz-3" value="&lt;p style=&quot;margin: 0px ; margin-top: 4px ; text-align: center&quot;&gt;考核逻辑处理器工厂类&lt;br&gt;&lt;b&gt;ProbationProccessorFactory&lt;/b&gt;&lt;/p&gt;&lt;p style=&quot;margin: 0px ; margin-top: 4px ; text-align: center&quot;&gt;&lt;b&gt;+chooseProcessor(ProbationCheckEntity)&lt;/b&gt;&lt;/p&gt;&lt;p style=&quot;margin: 0px ; margin-top: 4px ; text-align: center&quot;&gt;&lt;b&gt;&lt;br&gt;&lt;/b&gt;&lt;/p&gt;" style="verticalAlign=top;align=left;overflow=fill;fontSize=12;fontFamily=Helvetica;html=1;" vertex="1" parent="1">
          <mxGeometry x="227.5" y="230" width="275" height="60" as="geometry" />
        </mxCell>
        <mxCell id="evBoG5ZWrJdA5R31Dtoz-4" value="&lt;p style=&quot;margin: 0px ; margin-top: 4px ; text-align: center ; text-decoration: underline&quot;&gt;&lt;b&gt;考核对象&lt;/b&gt;&lt;/p&gt;&lt;div style=&quot;text-align: center&quot;&gt;&lt;span&gt;&lt;b&gt;&lt;u&gt;ProbationCheckEntity&lt;/u&gt;&lt;/b&gt;&lt;/span&gt;&lt;/div&gt;&lt;hr&gt;&lt;p style=&quot;margin: 0px ; margin-left: 8px&quot;&gt;field1 = value1&lt;br&gt;field2 = value2&lt;br&gt;field3 = value3&lt;/p&gt;" style="verticalAlign=top;align=left;overflow=fill;fontSize=12;fontFamily=Helvetica;html=1;" vertex="1" parent="1">
          <mxGeometry x="35" y="370" width="160" height="90" as="geometry" />
        </mxCell>
        <mxCell id="evBoG5ZWrJdA5R31Dtoz-6" value="" style="endArrow=block;dashed=1;endFill=0;endSize=12;html=1;rounded=0;exitX=0.431;exitY=1.011;exitDx=0;exitDy=0;exitPerimeter=0;entryX=0.5;entryY=0;entryDx=0;entryDy=0;startArrow=none;" edge="1" parent="1" source="evBoG5ZWrJdA5R31Dtoz-13">
          <mxGeometry width="160" relative="1" as="geometry">
            <mxPoint x="20" y="510" as="sourcePoint" />
            <mxPoint x="120" y="550" as="targetPoint" />
          </mxGeometry>
        </mxCell>
        <mxCell id="evBoG5ZWrJdA5R31Dtoz-7" value="&lt;p style=&quot;margin: 0px ; margin-top: 4px ; text-align: center&quot;&gt;&lt;i&gt;&amp;lt;&amp;lt;管理序列试用期考试处理接口&amp;gt;&amp;gt;&lt;/i&gt;&lt;br&gt;&lt;b&gt;ManagerProbationProccessor&lt;/b&gt;&lt;br&gt;&lt;/p&gt;&lt;hr size=&quot;1&quot;&gt;&lt;p style=&quot;margin: 0px ; margin-left: 4px&quot;&gt;&lt;br&gt;&lt;/p&gt;&lt;hr size=&quot;1&quot;&gt;&lt;p style=&quot;margin: 0px 0px 0px 4px&quot;&gt;+ process(Type): Type&lt;br&gt;&lt;/p&gt;&lt;p style=&quot;margin: 0px 0px 0px 4px&quot;&gt;+ getProbationStageProcessor()&lt;br&gt;&lt;/p&gt;&lt;p style=&quot;margin: 0px 0px 0px 4px&quot;&gt;+ supportType()&lt;/p&gt;" style="verticalAlign=top;align=left;overflow=fill;fontSize=12;fontFamily=Helvetica;html=1;" vertex="1" parent="1">
          <mxGeometry x="570" y="345" width="190" height="140" as="geometry" />
        </mxCell>
        <mxCell id="evBoG5ZWrJdA5R31Dtoz-8" value="&lt;p style=&quot;margin: 0px ; margin-top: 4px ; text-align: center&quot;&gt;&lt;i&gt;&amp;lt;&amp;lt;业务序列试用期考试处理接口&amp;gt;&amp;gt;&lt;/i&gt;&lt;br&gt;&lt;b&gt;SalesProbationProccessor&lt;/b&gt;&lt;br&gt;&lt;/p&gt;&lt;hr size=&quot;1&quot;&gt;&lt;p style=&quot;margin: 0px ; margin-left: 4px&quot;&gt;&lt;br&gt;&lt;/p&gt;&lt;hr size=&quot;1&quot;&gt;&lt;p style=&quot;margin: 0px 0px 0px 4px&quot;&gt;+ process(Type): Type&lt;br&gt;&lt;/p&gt;&lt;p style=&quot;margin: 0px 0px 0px 4px&quot;&gt;+ getProbationStageProcessor()&lt;br&gt;&lt;/p&gt;&lt;p style=&quot;margin: 0px 0px 0px 4px&quot;&gt;+ supportType()&lt;/p&gt;" style="verticalAlign=top;align=left;overflow=fill;fontSize=12;fontFamily=Helvetica;html=1;" vertex="1" parent="1">
          <mxGeometry x="570" y="630" width="190" height="140" as="geometry" />
        </mxCell>
        <mxCell id="evBoG5ZWrJdA5R31Dtoz-15" value="" style="endArrow=block;dashed=1;endFill=0;endSize=12;html=1;rounded=0;entryX=0;entryY=0.5;entryDx=0;entryDy=0;exitX=1;exitY=0.25;exitDx=0;exitDy=0;" edge="1" parent="1" source="evBoG5ZWrJdA5R31Dtoz-2" target="evBoG5ZWrJdA5R31Dtoz-7">
          <mxGeometry width="160" relative="1" as="geometry">
            <mxPoint x="340" y="530" as="sourcePoint" />
            <mxPoint x="500" y="530" as="targetPoint" />
          </mxGeometry>
        </mxCell>
        <mxCell id="evBoG5ZWrJdA5R31Dtoz-16" value="" style="endArrow=block;dashed=1;endFill=0;endSize=12;html=1;rounded=0;entryX=0;entryY=0.5;entryDx=0;entryDy=0;exitX=1;exitY=0.75;exitDx=0;exitDy=0;" edge="1" parent="1" source="evBoG5ZWrJdA5R31Dtoz-2" target="evBoG5ZWrJdA5R31Dtoz-8">
          <mxGeometry width="160" relative="1" as="geometry">
            <mxPoint x="475" y="575" as="sourcePoint" />
            <mxPoint x="570" y="425" as="targetPoint" />
          </mxGeometry>
        </mxCell>
        <mxCell id="evBoG5ZWrJdA5R31Dtoz-23" style="edgeStyle=orthogonalEdgeStyle;rounded=0;orthogonalLoop=1;jettySize=auto;html=1;entryX=0;entryY=0.5;entryDx=0;entryDy=0;" edge="1" parent="1" source="evBoG5ZWrJdA5R31Dtoz-17" target="evBoG5ZWrJdA5R31Dtoz-22">
          <mxGeometry relative="1" as="geometry" />
        </mxCell>
        <mxCell id="evBoG5ZWrJdA5R31Dtoz-27" value="Text" style="edgeLabel;html=1;align=center;verticalAlign=middle;resizable=0;points=[];fontColor=#000000;" vertex="1" connectable="0" parent="evBoG5ZWrJdA5R31Dtoz-23">
          <mxGeometry x="-0.2909" y="-1" relative="1" as="geometry">
            <mxPoint y="1" as="offset" />
          </mxGeometry>
        </mxCell>
        <mxCell id="evBoG5ZWrJdA5R31Dtoz-17" value="«试用期考核结算处理逻辑»&lt;br&gt;&lt;b&gt;ProbationStageProccessor&lt;/b&gt;" style="html=1;" vertex="1" parent="1">
          <mxGeometry x="850" y="530" width="180" height="45" as="geometry" />
        </mxCell>
        <mxCell id="evBoG5ZWrJdA5R31Dtoz-19" value="1" style="endArrow=open;html=1;endSize=12;startArrow=diamondThin;startSize=14;startFill=0;edgeStyle=orthogonalEdgeStyle;align=left;verticalAlign=bottom;rounded=0;exitX=1.016;exitY=0.45;exitDx=0;exitDy=0;exitPerimeter=0;entryX=0.5;entryY=0;entryDx=0;entryDy=0;" edge="1" parent="1" source="evBoG5ZWrJdA5R31Dtoz-7" target="evBoG5ZWrJdA5R31Dtoz-17">
          <mxGeometry x="-0.8937" y="18" relative="1" as="geometry">
            <mxPoint x="960" y="480" as="sourcePoint" />
            <mxPoint x="960" y="290" as="targetPoint" />
            <mxPoint as="offset" />
          </mxGeometry>
        </mxCell>
        <mxCell id="evBoG5ZWrJdA5R31Dtoz-50" value="Text" style="edgeLabel;html=1;align=center;verticalAlign=middle;resizable=0;points=[];fontColor=#000000;" vertex="1" connectable="0" parent="evBoG5ZWrJdA5R31Dtoz-19">
          <mxGeometry x="0.4849" y="-1" relative="1" as="geometry">
            <mxPoint as="offset" />
          </mxGeometry>
        </mxCell>
        <mxCell id="evBoG5ZWrJdA5R31Dtoz-21" value="1" style="endArrow=open;html=1;endSize=12;startArrow=diamondThin;startSize=14;startFill=0;edgeStyle=orthogonalEdgeStyle;align=left;verticalAlign=bottom;rounded=0;exitX=1.016;exitY=0.45;exitDx=0;exitDy=0;exitPerimeter=0;entryX=0.5;entryY=1;entryDx=0;entryDy=0;" edge="1" parent="1" target="evBoG5ZWrJdA5R31Dtoz-17">
          <mxGeometry x="-0.8937" y="18" relative="1" as="geometry">
            <mxPoint x="760" y="700" as="sourcePoint" />
            <mxPoint x="956.96" y="822" as="targetPoint" />
            <mxPoint as="offset" />
          </mxGeometry>
        </mxCell>
        <mxCell id="evBoG5ZWrJdA5R31Dtoz-25" style="edgeStyle=orthogonalEdgeStyle;rounded=0;orthogonalLoop=1;jettySize=auto;html=1;entryX=0;entryY=0.5;entryDx=0;entryDy=0;" edge="1" parent="1" source="evBoG5ZWrJdA5R31Dtoz-22" target="evBoG5ZWrJdA5R31Dtoz-32">
          <mxGeometry relative="1" as="geometry" />
        </mxCell>
        <mxCell id="evBoG5ZWrJdA5R31Dtoz-26" value="Text" style="edgeLabel;html=1;align=center;verticalAlign=middle;resizable=0;points=[];" vertex="1" connectable="0" parent="evBoG5ZWrJdA5R31Dtoz-25">
          <mxGeometry x="-0.2523" y="2" relative="1" as="geometry">
            <mxPoint as="offset" />
          </mxGeometry>
        </mxCell>
        <mxCell id="evBoG5ZWrJdA5R31Dtoz-22" value="&lt;p style=&quot;margin: 0px ; margin-top: 4px ; text-align: center&quot;&gt;&lt;b&gt;考核结果&lt;/b&gt;&lt;/p&gt;&lt;p style=&quot;margin: 0px ; margin-top: 4px ; text-align: center&quot;&gt;&lt;b&gt;Probation&lt;/b&gt;&lt;span style=&quot;font-family: &amp;#34;jetbrains mono&amp;#34; , monospace ; font-size: 9.8pt ; text-align: left&quot;&gt;Suggestion&lt;/span&gt;&lt;/p&gt;&lt;hr size=&quot;1&quot;&gt;&lt;p style=&quot;margin: 0px ; margin-left: 4px&quot;&gt;+ field: Type&lt;/p&gt;&lt;hr size=&quot;1&quot;&gt;&lt;p style=&quot;margin: 0px ; margin-left: 4px&quot;&gt;+ method(): Type&lt;/p&gt;" style="verticalAlign=top;align=left;overflow=fill;fontSize=12;fontFamily=Helvetica;html=1;strokeColor=#000000;" vertex="1" parent="1">
          <mxGeometry x="1140" y="501.25" width="160" height="102.5" as="geometry" />
        </mxCell>
        <mxCell id="evBoG5ZWrJdA5R31Dtoz-24" value="«调整工资和岗位»&lt;br&gt;&lt;b&gt;AdjustPositionAndSalaryHandler&lt;br&gt;&lt;/b&gt;" style="html=1;" vertex="1" parent="1">
          <mxGeometry x="1415" y="750" width="230" height="80" as="geometry" />
        </mxCell>
        <mxCell id="evBoG5ZWrJdA5R31Dtoz-28" value="«调整工资和岗位»&lt;br&gt;&lt;b&gt;ManagerAdjustPositionAndSalaryHandler&lt;br&gt;&lt;/b&gt;" style="html=1;" vertex="1" parent="1">
          <mxGeometry x="1180" y="960" width="280" height="90" as="geometry" />
        </mxCell>
        <mxCell id="evBoG5ZWrJdA5R31Dtoz-29" value="«调整工资和岗位»&lt;br&gt;&lt;b&gt;SalesAdjustPositionAndSalaryHandler&lt;br&gt;&lt;/b&gt;" style="html=1;" vertex="1" parent="1">
          <mxGeometry x="1550" y="960" width="280" height="90" as="geometry" />
        </mxCell>
        <mxCell id="evBoG5ZWrJdA5R31Dtoz-30" value="" style="endArrow=block;dashed=1;endFill=0;endSize=12;html=1;rounded=0;entryX=0.75;entryY=0;entryDx=0;entryDy=0;exitX=0.5;exitY=1;exitDx=0;exitDy=0;" edge="1" parent="1" source="evBoG5ZWrJdA5R31Dtoz-24" target="evBoG5ZWrJdA5R31Dtoz-28">
          <mxGeometry width="160" relative="1" as="geometry">
            <mxPoint x="1220" y="757.5" as="sourcePoint" />
            <mxPoint x="1310" y="830" as="targetPoint" />
          </mxGeometry>
        </mxCell>
        <mxCell id="evBoG5ZWrJdA5R31Dtoz-31" value="" style="endArrow=block;dashed=1;endFill=0;endSize=12;html=1;rounded=0;entryX=0.5;entryY=0;entryDx=0;entryDy=0;exitX=0.5;exitY=1;exitDx=0;exitDy=0;" edge="1" parent="1" source="evBoG5ZWrJdA5R31Dtoz-24" target="evBoG5ZWrJdA5R31Dtoz-29">
          <mxGeometry width="160" relative="1" as="geometry">
            <mxPoint x="1230" y="767.5" as="sourcePoint" />
            <mxPoint x="1090" y="840" as="targetPoint" />
          </mxGeometry>
        </mxCell>
        <mxCell id="evBoG5ZWrJdA5R31Dtoz-32" value="«调整工资和岗位»&lt;br&gt;&lt;b&gt;AdjustPositionAndSalaryHandlerFactory&lt;br&gt;&lt;/b&gt;" style="html=1;" vertex="1" parent="1">
          <mxGeometry x="1400" y="512.5" width="260" height="80" as="geometry" />
        </mxCell>
        <mxCell id="evBoG5ZWrJdA5R31Dtoz-33" value="1" style="endArrow=open;html=1;endSize=12;startArrow=diamondThin;startSize=14;startFill=0;edgeStyle=orthogonalEdgeStyle;align=left;verticalAlign=bottom;rounded=0;exitX=0.5;exitY=1;exitDx=0;exitDy=0;" edge="1" parent="1" source="evBoG5ZWrJdA5R31Dtoz-32" target="evBoG5ZWrJdA5R31Dtoz-24">
          <mxGeometry x="-0.8937" y="18" relative="1" as="geometry">
            <mxPoint x="1520" y="600" as="sourcePoint" />
            <mxPoint x="1706.96" y="722" as="targetPoint" />
            <mxPoint as="offset" />
          </mxGeometry>
        </mxCell>
        <mxCell id="evBoG5ZWrJdA5R31Dtoz-34" value="chooseHandler" style="edgeLabel;html=1;align=center;verticalAlign=middle;resizable=0;points=[];fontColor=#000000;" vertex="1" connectable="0" parent="evBoG5ZWrJdA5R31Dtoz-33">
          <mxGeometry x="-0.2163" y="3" relative="1" as="geometry">
            <mxPoint y="1" as="offset" />
          </mxGeometry>
        </mxCell>
        <mxCell id="evBoG5ZWrJdA5R31Dtoz-42" value="" style="edgeStyle=orthogonalEdgeStyle;rounded=0;orthogonalLoop=1;jettySize=auto;html=1;fontColor=#000000;" edge="1" parent="1" source="evBoG5ZWrJdA5R31Dtoz-35" target="evBoG5ZWrJdA5R31Dtoz-41">
          <mxGeometry relative="1" as="geometry" />
        </mxCell>
        <mxCell id="evBoG5ZWrJdA5R31Dtoz-35" value="«考核数据提供者»&lt;br&gt;&lt;b&gt;ProbationCheckDataProvider&lt;/b&gt;" style="html=1;labelBackgroundColor=none;fontColor=#000000;strokeColor=#000000;" vertex="1" parent="1">
          <mxGeometry x="27.5" y="-140" width="180" height="60" as="geometry" />
        </mxCell>
        <mxCell id="evBoG5ZWrJdA5R31Dtoz-37" value="&lt;p style=&quot;margin: 0px ; margin-top: 4px ; text-align: center&quot;&gt;&lt;i&gt;&amp;lt;&amp;lt;T1-T5考核数据默认提供者&amp;gt;&amp;gt;&lt;/i&gt;&lt;br&gt;DefaultProbationCheckDataProvider&lt;/p&gt;&lt;hr size=&quot;1&quot;&gt;&lt;p style=&quot;margin: 0px ; margin-left: 4px&quot;&gt;&lt;br&gt;&lt;/p&gt;&lt;hr size=&quot;1&quot;&gt;&lt;p style=&quot;margin: 0px ; margin-left: 4px&quot;&gt;+ fetch(): Type&lt;br&gt;&lt;/p&gt;" style="verticalAlign=top;align=left;overflow=fill;fontSize=12;fontFamily=Helvetica;html=1;" vertex="1" parent="1">
          <mxGeometry x="312.5" y="-260" width="230" height="140" as="geometry" />
        </mxCell>
        <mxCell id="evBoG5ZWrJdA5R31Dtoz-38" value="" style="endArrow=block;dashed=1;endFill=0;endSize=12;html=1;rounded=0;entryX=0;entryY=0.25;entryDx=0;entryDy=0;exitX=1;exitY=0.5;exitDx=0;exitDy=0;" edge="1" parent="1" source="evBoG5ZWrJdA5R31Dtoz-35" target="evBoG5ZWrJdA5R31Dtoz-37">
          <mxGeometry width="160" relative="1" as="geometry">
            <mxPoint x="272.5" y="-150" as="sourcePoint" />
            <mxPoint x="362.5" y="-77.5" as="targetPoint" />
          </mxGeometry>
        </mxCell>
        <mxCell id="evBoG5ZWrJdA5R31Dtoz-39" value="&lt;p style=&quot;margin: 0px ; margin-top: 4px ; text-align: center&quot;&gt;&lt;i&gt;&amp;lt;&amp;lt;T6考核数据提供者&amp;gt;&amp;gt;&lt;/i&gt;&lt;br&gt;T6StageDataProvider&lt;/p&gt;&lt;hr size=&quot;1&quot;&gt;&lt;p style=&quot;margin: 0px ; margin-left: 4px&quot;&gt;&lt;br&gt;&lt;/p&gt;&lt;hr size=&quot;1&quot;&gt;&lt;p style=&quot;margin: 0px ; margin-left: 4px&quot;&gt;+ fetch(): Type&lt;br&gt;&lt;/p&gt;" style="verticalAlign=top;align=left;overflow=fill;fontSize=12;fontFamily=Helvetica;html=1;" vertex="1" parent="1">
          <mxGeometry x="312.5" y="-60" width="230" height="140" as="geometry" />
        </mxCell>
        <mxCell id="evBoG5ZWrJdA5R31Dtoz-40" value="" style="endArrow=block;dashed=1;endFill=0;endSize=12;html=1;rounded=0;entryX=0;entryY=0.5;entryDx=0;entryDy=0;exitX=1;exitY=0.5;exitDx=0;exitDy=0;" edge="1" parent="1" source="evBoG5ZWrJdA5R31Dtoz-35" target="evBoG5ZWrJdA5R31Dtoz-39">
          <mxGeometry width="160" relative="1" as="geometry">
            <mxPoint x="222.5" y="-125" as="sourcePoint" />
            <mxPoint x="322.5" y="-195" as="targetPoint" />
          </mxGeometry>
        </mxCell>
        <mxCell id="evBoG5ZWrJdA5R31Dtoz-43" style="edgeStyle=orthogonalEdgeStyle;rounded=0;orthogonalLoop=1;jettySize=auto;html=1;entryX=0.5;entryY=0;entryDx=0;entryDy=0;fontColor=#000000;" edge="1" parent="1" source="evBoG5ZWrJdA5R31Dtoz-41" target="evBoG5ZWrJdA5R31Dtoz-3">
          <mxGeometry relative="1" as="geometry">
            <Array as="points">
              <mxPoint x="118" y="140" />
              <mxPoint x="365" y="140" />
            </Array>
          </mxGeometry>
        </mxCell>
        <mxCell id="evBoG5ZWrJdA5R31Dtoz-44" value="List&amp;lt;ProbationCheckEntity&amp;gt;" style="edgeLabel;html=1;align=center;verticalAlign=middle;resizable=0;points=[];fontColor=#000000;" vertex="1" connectable="0" parent="evBoG5ZWrJdA5R31Dtoz-43">
          <mxGeometry x="0.039" relative="1" as="geometry">
            <mxPoint as="offset" />
          </mxGeometry>
        </mxCell>
        <mxCell id="evBoG5ZWrJdA5R31Dtoz-41" value="&lt;p style=&quot;margin: 0px ; margin-top: 4px ; text-align: center&quot;&gt;&lt;/p&gt;&lt;div style=&quot;height: 2px&quot;&gt;&lt;/div&gt;&lt;div style=&quot;height: 2px&quot;&gt;&lt;br&gt;&lt;/div&gt;&lt;div style=&quot;height: 2px&quot;&gt;&lt;br&gt;&lt;/div&gt;&lt;div style=&quot;height: 2px&quot;&gt;&amp;nbsp; &amp;nbsp; &amp;nbsp; &amp;nbsp; &amp;nbsp; &amp;nbsp; 考核数据提供者集合&lt;/div&gt;&lt;div style=&quot;height: 2px&quot;&gt;&lt;br&gt;&lt;/div&gt;&lt;div style=&quot;height: 2px&quot;&gt;&amp;nbsp; &amp;nbsp; &amp;nbsp; &amp;nbsp; &amp;nbsp; &amp;nbsp; &amp;nbsp;&lt;/div&gt;&lt;div style=&quot;height: 2px&quot;&gt;&lt;br&gt;&lt;/div&gt;&lt;div style=&quot;height: 2px&quot;&gt;&amp;nbsp; &amp;nbsp;&lt;span style=&quot;white-space: pre&quot;&gt;	&lt;/span&gt;&lt;br&gt;&lt;/div&gt;&lt;b style=&quot;text-align: center&quot;&gt;ProbationCheckDataProviders&lt;/b&gt;" style="verticalAlign=top;align=left;overflow=fill;fontSize=12;fontFamily=Helvetica;html=1;labelBackgroundColor=none;fontColor=#000000;strokeColor=#000000;" vertex="1" parent="1">
          <mxGeometry x="10" y="20" width="215" height="60" as="geometry" />
        </mxCell>
        <mxCell id="evBoG5ZWrJdA5R31Dtoz-45" value="&lt;span style=&quot;text-align: left&quot;&gt;员工类型&lt;br&gt;EmployeeType&lt;br&gt;+ getType()&lt;br&gt;&lt;/span&gt;" style="html=1;" vertex="1" parent="1">
          <mxGeometry x="60" y="250" width="110" height="50" as="geometry" />
        </mxCell>
        <mxCell id="evBoG5ZWrJdA5R31Dtoz-46" value="" style="endArrow=block;dashed=1;endFill=0;endSize=12;html=1;rounded=0;entryX=0.5;entryY=1;entryDx=0;entryDy=0;exitX=0.5;exitY=0;exitDx=0;exitDy=0;" edge="1" parent="1" source="evBoG5ZWrJdA5R31Dtoz-4" target="evBoG5ZWrJdA5R31Dtoz-45">
          <mxGeometry width="160" relative="1" as="geometry">
            <mxPoint x="20.480000000000004" y="300" as="sourcePoint" />
            <mxPoint x="20" y="370" as="targetPoint" />
          </mxGeometry>
        </mxCell>
        <mxCell id="evBoG5ZWrJdA5R31Dtoz-13" value="&lt;span style=&quot;text-align: left&quot;&gt;考核阶段&lt;/span&gt;&lt;br style=&quot;text-align: left&quot;&gt;&lt;span style=&quot;text-align: left&quot;&gt;ProbationStage&lt;br&gt;+ getStage()&lt;br&gt;&lt;/span&gt;" style="html=1;" vertex="1" parent="1">
          <mxGeometry x="60" y="553.75" width="110" height="50" as="geometry" />
        </mxCell>
        <mxCell id="evBoG5ZWrJdA5R31Dtoz-49" value="" style="endArrow=block;dashed=1;endFill=0;endSize=12;html=1;rounded=0;entryX=0.5;entryY=0;entryDx=0;entryDy=0;exitX=0.5;exitY=1;exitDx=0;exitDy=0;" edge="1" parent="1" source="evBoG5ZWrJdA5R31Dtoz-4" target="evBoG5ZWrJdA5R31Dtoz-13">
          <mxGeometry width="160" relative="1" as="geometry">
            <mxPoint x="125" y="380" as="sourcePoint" />
            <mxPoint x="125" y="310" as="targetPoint" />
          </mxGeometry>
        </mxCell>
        <mxCell id="evBoG5ZWrJdA5R31Dtoz-51" value="&lt;p style=&quot;margin: 0px ; margin-top: 4px ; text-align: center&quot;&gt;&lt;/p&gt;&lt;div style=&quot;height: 2px&quot;&gt;&lt;b&gt;StageEnum&lt;/b&gt;&lt;/div&gt;" style="verticalAlign=top;align=left;overflow=fill;fontSize=12;fontFamily=Helvetica;html=1;labelBackgroundColor=none;fontColor=#000000;strokeColor=#000000;" vertex="1" parent="1">
          <mxGeometry x="45" y="710" width="140" height="60" as="geometry" />
        </mxCell>
        <mxCell id="evBoG5ZWrJdA5R31Dtoz-53" value="«管理者考核阶段实现类»&lt;br&gt;&lt;b&gt;Manager&lt;/b&gt;&lt;b&gt;ProbationStageProccessor&lt;/b&gt;&lt;b&gt;&lt;br&gt;&lt;/b&gt;" style="html=1;" vertex="1" parent="1">
          <mxGeometry x="960" y="260" width="280" height="90" as="geometry" />
        </mxCell>
        <mxCell id="evBoG5ZWrJdA5R31Dtoz-54" value="«业务刚考核阶段实现类»&lt;br&gt;&lt;b&gt;Sales&lt;/b&gt;&lt;b&gt;ProbationStageProccessor&lt;/b&gt;&lt;b&gt;&lt;br&gt;&lt;/b&gt;" style="html=1;" vertex="1" parent="1">
          <mxGeometry x="960" y="740" width="280" height="100" as="geometry" />
        </mxCell>
        <mxCell id="evBoG5ZWrJdA5R31Dtoz-55" value="" style="endArrow=block;dashed=1;endFill=0;endSize=12;html=1;rounded=0;fontColor=#000000;exitX=0.5;exitY=1;exitDx=0;exitDy=0;entryX=0.75;entryY=0;entryDx=0;entryDy=0;" edge="1" parent="1" source="evBoG5ZWrJdA5R31Dtoz-53" target="evBoG5ZWrJdA5R31Dtoz-17">
          <mxGeometry width="160" relative="1" as="geometry">
            <mxPoint x="910" y="580" as="sourcePoint" />
            <mxPoint x="1070" y="580" as="targetPoint" />
          </mxGeometry>
        </mxCell>
        <mxCell id="evBoG5ZWrJdA5R31Dtoz-57" value="Text" style="edgeLabel;html=1;align=center;verticalAlign=middle;resizable=0;points=[];fontColor=#000000;" vertex="1" connectable="0" parent="evBoG5ZWrJdA5R31Dtoz-55">
          <mxGeometry x="-0.3086" y="-4" relative="1" as="geometry">
            <mxPoint as="offset" />
          </mxGeometry>
        </mxCell>
        <mxCell id="evBoG5ZWrJdA5R31Dtoz-58" value="" style="endArrow=block;dashed=1;endFill=0;endSize=12;html=1;rounded=0;fontColor=#000000;entryX=0.75;entryY=1;entryDx=0;entryDy=0;exitX=0.5;exitY=0;exitDx=0;exitDy=0;" edge="1" parent="1" source="evBoG5ZWrJdA5R31Dtoz-54" target="evBoG5ZWrJdA5R31Dtoz-17">
          <mxGeometry width="160" relative="1" as="geometry">
            <mxPoint x="1020" y="750" as="sourcePoint" />
            <mxPoint x="995" y="540" as="targetPoint" />
          </mxGeometry>
        </mxCell>
        <mxCell id="evBoG5ZWrJdA5R31Dtoz-59" value="Text" style="edgeLabel;html=1;align=center;verticalAlign=middle;resizable=0;points=[];fontColor=#000000;" vertex="1" connectable="0" parent="evBoG5ZWrJdA5R31Dtoz-58">
          <mxGeometry x="-0.3086" y="-4" relative="1" as="geometry">
            <mxPoint as="offset" />
          </mxGeometry>
        </mxCell>
        <mxCell id="evBoG5ZWrJdA5R31Dtoz-67" style="edgeStyle=orthogonalEdgeStyle;rounded=0;orthogonalLoop=1;jettySize=auto;html=1;entryX=0.5;entryY=0;entryDx=0;entryDy=0;fontColor=#000000;exitX=0;exitY=0.5;exitDx=0;exitDy=0;" edge="1" parent="1" source="evBoG5ZWrJdA5R31Dtoz-61" target="evBoG5ZWrJdA5R31Dtoz-63">
          <mxGeometry relative="1" as="geometry" />
        </mxCell>
        <mxCell id="evBoG5ZWrJdA5R31Dtoz-68" style="edgeStyle=orthogonalEdgeStyle;rounded=0;orthogonalLoop=1;jettySize=auto;html=1;exitX=1;exitY=0.5;exitDx=0;exitDy=0;entryX=0.75;entryY=0;entryDx=0;entryDy=0;fontColor=#000000;" edge="1" parent="1" source="evBoG5ZWrJdA5R31Dtoz-61" target="evBoG5ZWrJdA5R31Dtoz-64">
          <mxGeometry relative="1" as="geometry" />
        </mxCell>
        <mxCell id="evBoG5ZWrJdA5R31Dtoz-61" value="«业绩抓取»&lt;br&gt;&lt;b&gt;AchievementCollector&lt;br&gt;&lt;/b&gt;" style="html=1;labelBackgroundColor=none;fontColor=#000000;strokeColor=#000000;" vertex="1" parent="1">
          <mxGeometry x="730" y="860" width="150" height="70" as="geometry" />
        </mxCell>
        <mxCell id="evBoG5ZWrJdA5R31Dtoz-63" value="«个人业绩抓取»&lt;br&gt;&lt;b&gt;PersonalAchievementCollector&lt;br&gt;&lt;/b&gt;" style="html=1;labelBackgroundColor=none;fontColor=#000000;strokeColor=#000000;" vertex="1" parent="1">
          <mxGeometry x="550" y="1010" width="190" height="70" as="geometry" />
        </mxCell>
        <mxCell id="evBoG5ZWrJdA5R31Dtoz-64" value="«团队业绩抓取»&lt;br&gt;&lt;b&gt;TeamAchievementCollector&lt;br&gt;&lt;/b&gt;" style="html=1;labelBackgroundColor=none;fontColor=#000000;strokeColor=#000000;" vertex="1" parent="1">
          <mxGeometry x="820" y="1010" width="180" height="70" as="geometry" />
        </mxCell>
        <mxCell id="evBoG5ZWrJdA5R31Dtoz-65" value="" style="endArrow=block;dashed=1;endFill=0;endSize=12;html=1;rounded=0;entryX=0.75;entryY=0;entryDx=0;entryDy=0;exitX=0.5;exitY=1;exitDx=0;exitDy=0;" edge="1" parent="1">
          <mxGeometry width="160" relative="1" as="geometry">
            <mxPoint x="1540" y="840" as="sourcePoint" />
            <mxPoint x="1400" y="970" as="targetPoint" />
          </mxGeometry>
        </mxCell>
        <mxCell id="evBoG5ZWrJdA5R31Dtoz-69" value="" style="endArrow=diamondThin;endFill=1;endSize=24;html=1;rounded=0;fontColor=#000000;entryX=0.5;entryY=0;entryDx=0;entryDy=0;exitX=-0.005;exitY=0.387;exitDx=0;exitDy=0;exitPerimeter=0;" edge="1" parent="1" source="evBoG5ZWrJdA5R31Dtoz-17" target="evBoG5ZWrJdA5R31Dtoz-61">
          <mxGeometry width="160" relative="1" as="geometry">
            <mxPoint x="940" y="570" as="sourcePoint" />
            <mxPoint x="990" y="800" as="targetPoint" />
            <Array as="points">
              <mxPoint x="800" y="547" />
            </Array>
          </mxGeometry>
        </mxCell>
      </root>
    </mxGraphModel>
  </diagram>
</mxfile>
